# xmcd
#
# Track frame offsets: 
#        150
#        8665
#        25375
#        60567
#        76333
#        88247
#        104120
#        132478
#        145421
#        156650
#        170552
#        197718
#        209810
#        222129
#        237173
#
# Disc length: 3359 seconds
#
# Revision: 1
# Processed by: cddbd v1.5.2PL0 Copyright (c) Steve Scherf et al.
# Submitted via: ExactAudioCopy v1.5
#
DISCID=e40d1d0f
DTITLE=Various Artist - JAZZ and TZAZ 189 - THE SINATRA COMPLEX
DYEAR=2008
DGENRE=Vocal
TTITLE0=CHRIS CONNOR - I GET A KICK OUT OF YOU
TTITLE1=FRANK SINATRA - I'VE GOT YOU UNDER MY SKIN
TTITLE2=CHARLES MINGUS - A FOGGY DAY
TTITLE3=FRANK SINATRA - MOOD INDIGO
TTITLE4=BUD POWELL - YOU'D BE SO NICE TO COME HOME TOO
TTITLE5=FRANK SINATRA - MOONLIGHT IN VERMONT
TTITLE6=JOHN COLTRANE - VIOLETS FOR YOUR FURS
TTITLE7=FRANK SINATRA - LITTLE GIRL BLUE
TTITLE8=TEDDY CHARLES - WHEN THE LOVER HAS GONE
TTITLE9=FRANK SINATRA - ONE FOR MY BABY
TTITLE10=MILES DAVIS - MY FUNNY VALENTINE
TTITLE11=FRANK SINATRA - IT NEVER ENTERED MY MIND
TTITLE12=FRANK SINATRA - APRIL IN PARIS
TTITLE13=THELONIOUS MONK - APRIL IN PARIS
TTITLE14=FRANK SINATRA - THE SONG IS YOU
EXTD=YEAR: 2008
EXTT0=
EXTT1=
EXTT2=
EXTT3=
EXTT4=
EXTT5=
EXTT6=
EXTT7=
EXTT8=
EXTT9=
EXTT10=
EXTT11=
EXTT12=
EXTT13=
EXTT14=
PLAYORDER=
